<svg xmlns="http://www.w3.org/2000/svg" xmlns:xlink="http://www.w3.org/1999/xlink" width="1080" zoomAndPan="magnify" viewBox="0 0 810 809.999993" height="1080" preserveAspectRatio="xMidYMid meet" version="1.2"><defs><clipPath id="4f47311a21"><path d="M 265.785156 165 L 544.035156 165 L 544.035156 644.976562 L 265.785156 644.976562 Z M 265.785156 165 "/></clipPath></defs><g id="d355eb5b85"><g clip-rule="nonzero" clip-path="url(#4f47311a21)"><path style=" stroke:none;fill-rule:evenodd;fill:#c74a3e;fill-opacity:1;" d="M 349.214844 627.046875 C 300.132812 594.511719 265.800781 520.410156 265.800781 434.257812 C 265.800781 368.640625 285.722656 309.972656 316.917969 271.390625 C 336.265625 247.617188 341.042969 218.007812 329.839844 191.035156 C 323.96875 176.777344 319.085938 165.003906 319.085938 165.003906 L 490.816406 165.003906 C 490.816406 165.003906 485.910156 176.796875 479.984375 191.074219 C 468.785156 218.03125 473.535156 247.660156 492.90625 271.433594 C 524.128906 310.011719 544.023438 368.640625 544.023438 434.257812 C 544.023438 520.410156 509.71875 594.511719 460.636719 627.046875 L 460.636719 644.609375 L 349.214844 644.609375 Z M 349.214844 627.046875 "/></g></g></svg>