<svg xmlns="http://www.w3.org/2000/svg" xmlns:xlink="http://www.w3.org/1999/xlink" width="1080" zoomAndPan="magnify" viewBox="0 0 810 809.999993" height="1080" preserveAspectRatio="xMidYMid meet" version="1.2"><defs><clipPath id="f401845be7"><path d="M 168 170 L 641.824219 170 L 641.824219 640 L 168 640 Z M 168 170 "/></clipPath></defs><g id="7dee1d74bd"><g clip-rule="nonzero" clip-path="url(#f401845be7)"><path style=" stroke:none;fill-rule:nonzero;fill:#2d446e;fill-opacity:1;" d="M 641.773438 465.726562 C 641.519531 474.601562 641.035156 483.472656 640.675781 492.34375 C 640.421875 499.042969 640.242188 505.765625 639.960938 512.464844 C 639.804688 516.222656 639.578125 519.953125 639.371094 523.710938 C 639.140625 527.417969 637.273438 530.179688 634.207031 532.074219 C 633.183594 532.710938 631.882812 532.941406 630.679688 533.222656 C 630.476562 533.273438 630.167969 533.148438 629.914062 532.992188 C 629.9375 533.019531 629.988281 533.042969 630.015625 533.070312 C 629.042969 533.65625 627.996094 534.117188 626.945312 534.605469 C 626.945312 534.605469 626.945312 534.605469 626.945312 534.578125 C 626.511719 535.472656 625.925781 536.367188 625.15625 537.007812 C 623.851562 538.082031 622.371094 538.976562 620.9375 539.871094 C 606.699219 548.640625 592.023438 556.667969 577.195312 564.390625 C 549.964844 578.550781 522.304688 591.871094 494.386719 604.65625 C 470.914062 615.394531 447.394531 625.976562 423.875 636.613281 C 422.3125 637.304688 420.675781 637.816406 419.066406 638.351562 C 416.996094 639.066406 414.898438 639.527344 412.777344 638.429688 C 412.496094 638.277344 412.113281 638.222656 411.78125 638.25 C 409.171875 638.53125 406.820312 637.609375 404.519531 636.714844 C 388.820312 630.683594 373.125 624.648438 357.476562 618.511719 C 350.394531 615.726562 343.390625 612.710938 336.359375 609.792969 C 335.824219 609.566406 335.3125 609.386719 334.800781 609.128906 C 333.46875 608.515625 332.242188 608.59375 330.886719 609.15625 C 326.464844 610.945312 322.015625 612.65625 317.542969 614.320312 C 313.707031 615.75 309.796875 616.980469 305.988281 618.460938 C 303.070312 619.585938 300.15625 619.355469 297.242188 618.84375 C 295.964844 618.613281 294.839844 617.667969 293.40625 616.925781 C 292.972656 617.082031 292.257812 617.488281 291.542969 617.542969 C 290.902344 617.59375 290.210938 617.285156 289.574219 617.082031 C 281.953125 614.703125 274.640625 611.585938 267.355469 608.414062 C 255.671875 603.300781 244.320312 597.546875 232.945312 591.871094 C 216.964844 583.921875 201.113281 575.714844 185.492188 567.046875 C 182.707031 565.511719 179.945312 563.929688 177.234375 562.242188 C 176.007812 561.472656 174.855469 560.476562 173.835938 559.429688 C 173.324219 558.890625 173.015625 558.074219 172.835938 557.332031 C 172.710938 556.820312 172.886719 556.308594 173.195312 555.925781 C 172.734375 554.902344 172.503906 553.726562 172.429688 552.527344 C 172.480469 552.527344 172.53125 552.527344 172.582031 552.527344 C 171.941406 552.601562 171.074219 551.835938 170.996094 551.015625 C 170.792969 549.101562 170.535156 547.15625 170.535156 545.238281 C 170.535156 537.851562 170.691406 530.4375 170.691406 523.046875 C 170.714844 513.589844 170.714844 504.15625 170.664062 494.695312 C 170.585938 479.226562 170.511719 463.734375 170.304688 448.265625 C 170.074219 430.957031 169.769531 413.675781 169.4375 396.367188 C 169.207031 384.53125 168.925781 372.691406 168.644531 360.855469 C 168.03125 332.859375 167.929688 304.863281 168.285156 276.871094 C 168.386719 269.480469 169.054688 262.09375 169.511719 254.730469 C 169.589844 253.503906 169.972656 252.273438 170.230469 251.046875 C 170.460938 249.898438 170.972656 248.898438 171.96875 248.210938 C 172.835938 247.621094 173.425781 246.804688 173.859375 245.832031 C 174.652344 244.066406 176.03125 242.917969 177.824219 242.277344 C 180.609375 241.28125 183.371094 240.257812 186.207031 239.441406 C 221.386719 229.417969 256.746094 220.113281 292.257812 211.292969 C 316.496094 205.257812 340.730469 199.148438 365.019531 193.214844 C 381.6875 189.125 398.382812 185.289062 415.078125 181.300781 C 429.777344 177.800781 444.453125 174.246094 459.15625 170.742188 C 460.152344 170.511719 461.148438 170.257812 462.171875 170.179688 C 462.9375 170.128906 463.78125 170.230469 464.496094 170.488281 C 464.882812 170.617188 465.164062 170.847656 465.394531 171.152344 C 465.394531 171.152344 465.394531 171.128906 465.367188 171.128906 C 467.308594 170.640625 469.304688 170.488281 471.222656 171.101562 C 471.375 171.050781 471.554688 171 471.757812 171.023438 C 473.214844 171.074219 474.722656 171.101562 476.128906 171.460938 C 482.191406 172.96875 488.25 174.554688 494.257812 176.214844 C 518.316406 182.964844 542.320312 189.894531 565.972656 197.996094 C 570.597656 199.582031 575.277344 200.988281 579.90625 202.496094 C 580.976562 202.855469 582.050781 203.214844 583.101562 203.648438 C 584.609375 204.261719 585.453125 205.308594 585.503906 207.023438 C 585.65625 211.574219 586.066406 216.125 586.089844 220.675781 C 586.167969 268.125 586.21875 315.601562 586.246094 363.054688 C 586.246094 381.027344 586.195312 399.027344 586.117188 417 C 586.089844 420.628906 585.757812 424.257812 585.605469 427.914062 C 585.554688 428.808594 585.605469 429.730469 585.605469 430.804688 C 586.246094 431.035156 586.832031 431.316406 587.472656 431.445312 C 597.339844 433.746094 606.878906 437.066406 616.414062 440.46875 C 620.375 441.875 624.3125 443.332031 628.300781 444.6875 C 631.445312 445.761719 634.386719 447.167969 637.328125 448.675781 C 639.78125 449.929688 641.160156 451.949219 641.390625 454.554688 C 641.648438 458.210938 641.878906 461.996094 641.773438 465.726562 Z M 641.773438 465.726562 "/></g><path style=" stroke:none;fill-rule:nonzero;fill:#a31621;fill-opacity:1;" d="M 580.007812 207.839844 C 576.53125 206.816406 573 205.871094 569.550781 204.773438 C 556.460938 200.605469 543.421875 196.234375 530.28125 192.195312 C 514.199219 187.257812 498.042969 182.65625 481.933594 177.824219 C 478.558594 176.828125 475.285156 175.5 471.988281 174.296875 C 471.683594 174.195312 471.375 174.015625 471.070312 173.863281 C 470.429688 173.503906 470.046875 172.738281 470.226562 172.148438 C 470.402344 171.636719 470.734375 171.203125 471.171875 171.050781 C 469.253906 170.4375 467.257812 170.589844 465.316406 171.078125 C 465.902344 171.84375 465.878906 173.042969 465.136719 173.835938 C 464.242188 174.808594 462.988281 175.117188 461.789062 175.421875 C 458.695312 176.214844 455.601562 176.957031 452.507812 177.699219 C 433.078125 182.375 413.621094 187.03125 394.191406 191.707031 C 373.867188 196.617188 353.539062 201.449219 333.242188 206.460938 C 284.28125 218.605469 235.347656 230.875 186.847656 244.707031 C 184.980469 245.246094 183.164062 245.859375 181.300781 246.367188 C 179.484375 246.878906 177.949219 247.722656 176.824219 249.285156 C 176.367188 249.921875 175.75 250.460938 174.90625 251.328125 C 174.191406 261.707031 173.476562 272.164062 173.527344 282.621094 C 173.605469 307.882812 173.679688 333.167969 173.886719 358.425781 C 173.960938 369.242188 174.292969 380.054688 174.550781 390.871094 C 174.882812 406.464844 175.46875 422.035156 175.546875 437.632812 C 175.75 466.445312 175.726562 495.257812 175.648438 524.046875 C 175.625 531.664062 175.242188 539.28125 174.933594 546.902344 C 174.882812 548.359375 174.472656 549.816406 174.117188 551.246094 C 173.9375 551.9375 173.296875 552.347656 172.582031 552.449219 C 172.53125 552.449219 172.480469 552.449219 172.429688 552.449219 C 172.503906 553.652344 172.734375 554.828125 173.195312 555.851562 C 173.527344 555.464844 174.039062 555.210938 174.574219 555.261719 C 175.242188 555.3125 175.929688 555.464844 176.542969 555.722656 C 177.285156 556.027344 177.976562 556.4375 178.640625 556.847656 C 194.234375 566.023438 210.242188 574.410156 226.398438 582.539062 C 240.410156 589.597656 254.367188 596.753906 268.683594 603.171875 C 275.742188 606.316406 282.898438 609.257812 289.753906 612.835938 C 291.054688 613.527344 292.488281 613.988281 293.484375 615.417969 C 294.046875 615.214844 294.636719 615.0625 295.222656 614.933594 C 295.148438 609.640625 295.09375 604.324219 294.25 599.03125 C 294.199219 599.03125 294.175781 599.058594 294.148438 599.058594 C 293.996094 598.699219 293.714844 598.339844 293.664062 597.933594 C 293.535156 596.910156 293.484375 595.886719 293.460938 594.863281 C 293.355469 591.234375 293.332031 587.578125 293.203125 583.945312 C 292.84375 574.054688 292.4375 564.160156 292.027344 554.289062 C 291.796875 548.945312 291.542969 543.601562 291.3125 538.261719 C 291.003906 530.972656 290.722656 523.710938 290.417969 516.425781 C 290.058594 507.785156 289.675781 499.144531 289.316406 490.503906 C 289.265625 489.25 289.214844 487.996094 289.191406 486.742188 C 288.855469 471.046875 288.421875 455.347656 288.191406 439.652344 C 287.886719 418.148438 287.707031 396.648438 287.503906 375.148438 C 287.375 360.472656 287.222656 345.796875 287.222656 331.121094 C 287.222656 325.316406 287.527344 319.515625 287.785156 313.738281 C 287.835938 312.277344 288.117188 310.796875 288.421875 309.363281 C 288.652344 308.238281 289.316406 307.601562 289.878906 307.78125 C 289.90625 307.78125 289.929688 307.804688 289.957031 307.804688 C 289.828125 300.210938 295.632812 297.375 302.253906 295.480469 C 302.457031 295.199219 302.636719 294.917969 302.894531 294.816406 C 305.425781 293.820312 307.929688 292.695312 310.539062 291.929688 C 327.179688 286.941406 343.570312 281.164062 360.035156 275.589844 C 382.300781 268.050781 404.621094 260.6875 426.964844 253.375 C 459.359375 242.816406 491.777344 232.308594 524.195312 221.902344 C 535.648438 218.21875 547.207031 214.820312 558.734375 211.417969 C 561.34375 210.652344 564.054688 210.296875 566.738281 209.785156 C 567.171875 209.707031 567.632812 209.734375 568.066406 209.808594 C 568.246094 209.835938 568.476562 210.039062 568.527344 210.21875 C 568.554688 210.269531 568.554688 210.347656 568.554688 210.398438 C 572.464844 209.117188 576.554688 208.582031 580.671875 208.019531 C 580.492188 207.96875 580.261719 207.890625 580.007812 207.839844 Z M 273.464844 290.394531 C 269.582031 289.523438 265.695312 288.808594 261.960938 287.300781 C 255.03125 284.464844 247.976562 281.878906 241.097656 278.914062 C 222.539062 270.914062 203.847656 263.191406 185.058594 255.699219 C 183.804688 255.191406 182.550781 254.628906 181.375 253.960938 C 180.96875 253.730469 180.761719 253.144531 180.480469 252.734375 C 181.480469 251.789062 182.347656 252.199219 183.191406 252.503906 C 185.644531 253.398438 188.074219 254.371094 190.503906 255.292969 C 210.648438 262.730469 230.4375 271.015625 250.277344 279.195312 C 255.621094 281.394531 261.066406 283.441406 266.410156 285.613281 C 269.042969 286.6875 271.625 287.863281 274.207031 289.039062 C 274.589844 289.21875 274.871094 289.550781 275.203125 289.78125 C 274.796875 290.753906 274.054688 290.546875 273.464844 290.394531 Z M 273.464844 290.394531 "/><path style=" stroke:none;fill-rule:nonzero;fill:#c6664e;fill-opacity:1;" d="M 411.78125 546.414062 C 407.613281 544.984375 403.753906 543.628906 399.890625 542.324219 C 389.230469 538.746094 378.644531 534.9375 367.910156 531.636719 C 355.738281 527.929688 343.441406 524.710938 331.195312 521.285156 C 330.453125 521.078125 329.738281 520.746094 328.636719 520.339844 C 334.542969 518.421875 340.015625 516.605469 345.539062 514.890625 C 356.8125 511.363281 367.78125 506.941406 378.75 502.570312 C 423.285156 484.828125 467.796875 467.007812 512.332031 449.261719 C 525.421875 444.046875 538.5625 438.960938 551.421875 433.207031 C 553.902344 432.082031 556.359375 430.933594 558.914062 429.730469 C 565.433594 432.390625 572.414062 433.566406 579.265625 435.046875 C 590.183594 437.402344 600.84375 440.519531 611.324219 444.277344 C 617.511719 446.503906 623.726562 448.726562 629.914062 450.949219 C 630.421875 451.128906 630.910156 451.410156 631.394531 451.617188 C 631.371094 452.535156 630.652344 452.484375 630.21875 452.664062 C 604.039062 464.527344 577.832031 476.3125 551.652344 488.199219 C 549.351562 489.25 547.28125 489.429688 544.800781 488.738281 C 530.792969 484.878906 516.859375 480.761719 502.925781 476.621094 C 494.539062 474.140625 486.050781 472.019531 477.613281 469.769531 C 476.847656 469.5625 476.054688 469.433594 475.261719 469.460938 C 474.929688 469.460938 474.390625 469.871094 474.316406 470.175781 C 474.238281 470.484375 474.546875 471.097656 474.828125 471.25 C 475.644531 471.632812 476.539062 471.839844 477.410156 472.09375 C 485.921875 474.574219 494.4375 477.003906 502.925781 479.535156 C 510.875 481.886719 518.773438 484.417969 526.726562 486.769531 C 532.070312 488.355469 537.4375 489.761719 542.808594 491.269531 C 542.988281 491.320312 543.113281 491.5 543.421875 491.730469 C 542.628906 492.113281 541.914062 492.445312 541.195312 492.75 C 508.320312 507.144531 475.441406 521.589844 442.535156 535.933594 C 436.605469 538.515625 430.570312 540.894531 424.5625 543.296875 C 420.957031 544.726562 417.277344 545.878906 413.367188 545.980469 C 412.726562 546.058594 412.0625 546.339844 411.78125 546.414062 Z M 411.78125 546.414062 "/><path style=" stroke:none;fill-rule:nonzero;fill:#c6664e;fill-opacity:1;" d="M 629.578125 532.660156 C 629.375 532.355469 629.351562 531.714844 629.554688 531.410156 C 630.167969 530.460938 630.859375 529.542969 631.574219 528.671875 C 633.285156 526.574219 634.15625 524.273438 634.183594 521.488281 C 634.234375 515.226562 634.515625 508.988281 634.769531 502.722656 C 635.078125 495.230469 635.535156 487.714844 635.84375 480.222656 C 636.175781 472.605469 636.433594 464.988281 636.6875 457.367188 C 636.710938 456.703125 636.609375 456.039062 636.535156 455.066406 C 635.230469 455.628906 634.105469 456.0625 633.003906 456.574219 C 617.589844 463.835938 602.25 471.328125 586.707031 478.332031 C 557.046875 491.652344 527.289062 504.71875 497.554688 517.859375 C 478.328125 526.347656 459.078125 534.808594 439.570312 542.707031 C 435.25 544.445312 430.878906 546.03125 426.480469 547.566406 C 423.59375 548.589844 420.601562 549.355469 417.507812 549.457031 C 416.253906 549.507812 415 549.484375 413.773438 549.277344 C 412.648438 549.101562 411.625 548.996094 410.449219 549.175781 C 409.503906 549.332031 408.429688 548.972656 407.484375 548.691406 C 400.632812 546.644531 393.808594 544.5 386.929688 542.476562 C 374.402344 538.796875 361.847656 535.191406 349.296875 531.5625 C 341.984375 529.441406 334.671875 527.316406 327.359375 525.222656 C 326.3125 524.914062 325.238281 524.734375 323.933594 524.429688 C 323.910156 525.578125 323.832031 526.449219 323.859375 527.34375 C 324.011719 536.214844 324.164062 545.085938 324.316406 553.957031 C 324.34375 554.75 324.367188 555.542969 324.34375 556.335938 C 324.085938 569.296875 323.984375 582.285156 323.140625 595.222656 C 323.066406 596.347656 322.960938 597.472656 322.835938 598.75 C 323.523438 599.132812 324.140625 599.671875 324.878906 599.847656 C 329.304688 601 333.445312 602.890625 337.636719 604.65625 C 356.070312 612.402344 374.761719 619.511719 393.476562 626.539062 C 397.847656 628.175781 402.140625 629.941406 406.460938 631.703125 C 408.96875 632.753906 411.421875 633.953125 414.15625 635.207031 C 415.921875 634.464844 417.917969 633.648438 419.882812 632.753906 C 435.914062 625.441406 451.917969 618.078125 467.949219 610.792969 C 500.75 595.910156 533.425781 580.675781 565.511719 564.3125 C 584.558594 554.597656 603.398438 544.5 621.527344 533.148438 C 622.394531 532.609375 623.289062 532.125 624.261719 531.765625 C 625.054688 531.460938 625.820312 531.714844 626.460938 532.328125 C 627.101562 532.96875 627.304688 533.785156 626.945312 534.527344 C 626.945312 534.527344 626.945312 534.527344 626.945312 534.554688 C 627.996094 534.09375 629.042969 533.605469 630.015625 533.019531 C 629.835938 532.941406 629.65625 532.789062 629.578125 532.660156 Z M 416.457031 606.625 C 416.484375 610.816406 416.6875 615.035156 416.664062 619.230469 C 416.664062 621.144531 416.355469 623.0625 416.101562 624.980469 C 416.023438 625.519531 415.742188 626.054688 415.4375 626.515625 C 415.28125 626.746094 414.875 626.949219 414.59375 626.925781 C 414.3125 626.898438 413.902344 626.644531 413.800781 626.386719 C 413.570312 625.773438 413.367188 625.082031 413.339844 624.417969 C 413.160156 621.707031 412.929688 618.972656 412.957031 616.261719 C 413.085938 599.902344 413.289062 583.539062 413.46875 567.175781 C 413.492188 564.003906 413.492188 560.808594 413.570312 557.640625 C 413.59375 556.617188 413.75 555.621094 413.929688 554.621094 C 414.003906 554.238281 414.363281 553.933594 414.617188 553.574219 C 415.71875 554.136719 415.921875 555.03125 416 555.925781 C 416.28125 559.199219 416.714844 562.472656 416.738281 565.769531 C 416.765625 570.421875 416.382812 575.074219 416.355469 579.730469 C 416.304688 588.675781 416.382812 597.652344 416.457031 606.625 Z M 487.558594 568.070312 C 482.011719 571.292969 476.078125 566.691406 475.59375 562.214844 C 475.441406 560.886719 475.414062 559.480469 475.644531 558.152344 C 476.207031 555.183594 477.84375 553.011719 480.808594 551.9375 C 482.445312 551.351562 484.105469 551.171875 485.820312 551.195312 C 487.480469 551.222656 488.9375 551.65625 489.910156 553.191406 C 490.089844 553.472656 490.320312 553.726562 490.601562 553.933594 C 492.289062 555.234375 492.722656 557.078125 492.699219 558.6875 C 492.671875 563.058594 490.984375 566.078125 487.558594 568.070312 Z M 582.589844 523.226562 C 580.058594 524.914062 576.554688 524.53125 574.5625 522.230469 C 573.078125 520.542969 572.386719 518.546875 572.4375 516.324219 C 572.335938 513.792969 573.105469 511.570312 574.765625 509.726562 C 578.164062 505.96875 583.277344 506.507812 585.707031 511.132812 C 588.007812 515.480469 585.914062 521.027344 582.589844 523.226562 Z M 321.914062 505.96875 C 322.375 506.300781 322.785156 506.609375 323.296875 506.992188 C 329.507812 504.511719 335.71875 502.03125 341.933594 499.527344 C 382.480469 483.164062 423.082031 466.851562 463.601562 450.386719 C 485.386719 441.542969 507.089844 432.441406 528.824219 423.46875 C 537.949219 419.683594 547.308594 416.488281 556.972656 413.855469 C 557.125 413.085938 557.378906 412.320312 557.429688 411.554688 C 558.25 393.019531 559.425781 374.507812 559.554688 355.945312 C 559.578125 351.0625 559.296875 346.179688 559.144531 341.269531 C 559.117188 340.605469 558.914062 339.96875 558.785156 339.300781 C 552.933594 341.269531 547.257812 343.265625 541.53125 345.105469 C 508.242188 355.894531 475.183594 367.375 442.253906 379.210938 C 422.902344 386.164062 403.726562 393.582031 384.476562 400.789062 C 369.46875 406.414062 354.484375 412.039062 339.503906 417.714844 C 334.722656 419.53125 329.789062 420.910156 324.855469 422.265625 C 323.21875 422.726562 321.609375 423.289062 320.226562 423.722656 C 318.820312 425.5625 318.410156 427.378906 318.515625 429.398438 C 318.847656 436.226562 319.101562 443.050781 319.460938 449.851562 C 319.714844 454.835938 320.074219 459.847656 320.429688 464.832031 C 320.816406 470.277344 321.273438 475.726562 321.632812 481.171875 C 322.015625 486.949219 322.324219 492.75 322.605469 498.554688 C 322.65625 499.808594 322.679688 501.0625 321.863281 502.160156 C 321.328125 502.851562 320.535156 503.132812 319.765625 503.054688 C 319.894531 504.742188 320.226562 506.328125 321.070312 507.65625 C 320.996094 506.992188 321.25 506.429688 321.914062 505.96875 Z M 492.59375 386.726562 C 495.023438 383.507812 501.519531 383.6875 503.589844 387.828125 C 506.019531 392.660156 504.738281 397.925781 502.15625 400.890625 C 501.363281 401.8125 500.316406 402.605469 499.21875 403.117188 C 495.304688 404.90625 491.316406 403.167969 489.835938 399.128906 C 489.449219 398.078125 489.324219 396.929688 489.195312 396.289062 C 489.296875 392.378906 490.550781 389.4375 492.59375 386.726562 Z M 390.203125 424.15625 C 392.015625 422.238281 394.320312 421.5 397.003906 421.730469 C 400.046875 422.011719 402.296875 423.519531 404.058594 425.894531 C 405.109375 427.328125 405.335938 429.015625 405.335938 430.753906 C 405.285156 435.355469 402.578125 439.421875 398.382812 441.183594 C 392.914062 443.484375 387.644531 439.984375 386.800781 434.765625 C 386.136719 430.703125 387.390625 427.148438 390.203125 424.15625 Z M 319.332031 407.308594 C 319 401.019531 318.71875 395.140625 318.386719 389.234375 C 318.054688 383.558594 317.695312 377.882812 317.339844 372.207031 C 317.261719 370.851562 317.183594 369.472656 317.109375 368.117188 C 316.46875 352.546875 316.367188 336.949219 316.621094 321.355469 C 316.648438 319.539062 316.621094 317.75 316.621094 315.933594 C 317.3125 315.601562 317.796875 315.269531 318.335938 315.140625 C 328.535156 312.765625 338.355469 309.160156 348.246094 305.835938 C 384.628906 293.640625 420.957031 281.191406 457.339844 268.996094 C 485.539062 259.535156 513.917969 250.585938 542.398438 241.972656 C 548.484375 240.132812 554.515625 238.085938 560.550781 236.140625 C 560.859375 236.039062 561.191406 236.039062 561.597656 235.988281 C 561.675781 236.371094 561.804688 236.679688 561.804688 236.984375 C 561.726562 245.523438 561.703125 254.066406 561.546875 262.578125 C 561.367188 272.472656 561.113281 282.367188 560.753906 292.261719 C 560.550781 297.9375 560.066406 303.613281 559.734375 309.289062 C 559.527344 312.585938 559.324219 315.882812 559.988281 319.15625 C 560.066406 319.589844 559.988281 320.050781 559.988281 320.613281 C 559.347656 320.871094 558.761719 321.152344 558.148438 321.378906 C 557.40625 321.660156 556.640625 321.890625 555.898438 322.199219 C 541.757812 328.4375 527.085938 333.292969 512.460938 338.28125 C 492.902344 344.976562 473.242188 351.320312 453.734375 358.121094 C 423.386719 368.703125 393.066406 379.363281 363.101562 390.945312 C 352.515625 395.039062 341.984375 399.332031 331.398438 403.449219 C 328.023438 404.753906 324.523438 405.800781 321.070312 406.925781 C 320.609375 407.128906 320.046875 407.179688 319.332031 407.308594 Z M 388.898438 327.261719 C 386.726562 326.929688 384.960938 328.078125 383.785156 330.046875 C 382.148438 332.757812 381.585938 335.722656 382.480469 338.84375 C 382.992188 340.65625 384.09375 342.039062 385.574219 343.1875 C 389.28125 346.050781 396.363281 345.054688 398.765625 339.507812 C 400.429688 335.671875 399.738281 332.476562 396.441406 329.792969 C 394.320312 328.078125 391.863281 327.335938 388.898438 327.261719 Z M 487.710938 302.078125 C 487.738281 302.410156 487.761719 303.332031 487.96875 304.199219 C 488.554688 306.65625 489.886719 308.546875 492.289062 309.542969 C 495.894531 311.027344 500.625 309.160156 502.257812 305.375 C 503.894531 301.617188 503.714844 297.835938 501.773438 294.203125 C 501.058594 292.875 500.035156 291.648438 498.550781 291.316406 C 495.792969 290.699219 493.105469 290.90625 490.984375 293.15625 C 488.785156 295.507812 487.636719 298.269531 487.710938 302.078125 Z M 487.710938 302.078125 "/><path style=" stroke:none;fill-rule:nonzero;fill:#c74a3e;fill-opacity:1;" d="M 581.925781 209.886719 C 581.976562 209.453125 581.925781 208.992188 581.925781 208.402344 C 581.515625 208.273438 581.132812 208.171875 580.722656 208.046875 C 576.582031 208.582031 572.515625 209.144531 568.605469 210.421875 C 568.605469 210.578125 568.578125 210.78125 568.476562 210.859375 C 568.167969 211.191406 567.835938 211.523438 567.429688 211.699219 C 566.074219 212.289062 564.71875 212.878906 563.3125 213.3125 C 510.007812 229.75 456.90625 246.726562 403.828125 263.832031 C 382.738281 270.632812 361.773438 277.765625 340.730469 284.691406 C 331.015625 287.890625 321.273438 290.957031 311.304688 293.308594 C 308.875 293.871094 306.550781 294.84375 304.171875 295.636719 C 303.53125 295.839844 302.945312 296.222656 302.074219 295.6875 C 302.125 295.609375 302.175781 295.558594 302.226562 295.480469 C 295.605469 297.375 289.777344 300.210938 289.929688 307.804688 C 290.648438 308.085938 290.722656 308.777344 290.800781 309.414062 C 290.875 309.976562 290.875 310.539062 290.875 311.128906 C 290.902344 313.863281 290.929688 316.601562 290.953125 319.308594 C 291.03125 353.773438 291.03125 388.261719 291.183594 422.726562 C 291.261719 438.089844 291.667969 453.429688 291.976562 468.796875 C 292.128906 476.542969 292.335938 484.265625 292.589844 491.984375 C 293.023438 504.382812 293.511719 516.757812 293.96875 529.160156 C 294.429688 541.429688 294.96875 553.703125 295.351562 566 C 295.582031 573.054688 295.683594 580.113281 295.683594 587.144531 C 295.683594 590.542969 295.375 593.96875 295.171875 597.371094 C 295.148438 598.007812 295.121094 598.699219 294.199219 598.980469 C 295.042969 604.273438 295.09375 609.589844 295.171875 614.882812 C 295.988281 614.730469 296.808594 614.625 297.675781 614.652344 C 299.570312 614.703125 301.589844 614.5 303.378906 613.886719 C 309.695312 611.660156 315.933594 609.207031 322.222656 606.855469 C 323.140625 606.496094 324.035156 606.113281 324.929688 605.753906 C 324.726562 604.910156 324.085938 604.886719 323.601562 604.628906 C 322.503906 604.042969 321.351562 603.503906 320.40625 602.738281 C 318.921875 601.5625 318.003906 600.054688 318.257812 597.984375 C 318.359375 597.089844 318.128906 596.167969 318.078125 595.273438 C 318.027344 593.917969 317.925781 592.539062 317.953125 591.183594 C 318.285156 580.265625 318.667969 569.347656 318.949219 558.433594 C 319.101562 551.835938 319 545.238281 319.128906 538.644531 C 319.230469 533.761719 319.511719 528.878906 319.714844 523.96875 C 319.742188 523.636719 319.742188 523.277344 319.792969 522.945312 C 319.972656 521.105469 320.765625 519.699219 322.503906 518.933594 C 325.210938 517.753906 327.847656 516.402344 330.605469 515.378906 C 382.632812 495.871094 434.074219 474.882812 485.640625 454.199219 C 501.875 447.679688 518.160156 441.261719 534.371094 434.664062 C 541.09375 431.929688 547.714844 428.886719 554.390625 425.972656 C 555.105469 425.664062 555.847656 425.332031 556.589844 425.078125 C 557.558594 424.746094 558.503906 424.695312 559.578125 424.949219 C 566.304688 426.585938 573.050781 428.144531 579.800781 429.730469 C 580.210938 429.832031 580.644531 429.730469 581.207031 429.730469 C 581.515625 428.171875 581.207031 426.714844 581.132812 425.257812 C 580.953125 422.648438 580.671875 420.042969 580.671875 417.433594 C 580.621094 360.523438 580.621094 303.613281 580.59375 246.703125 C 580.59375 240.335938 580.695312 233.945312 580.695312 227.578125 C 580.75 221.644531 581.132812 215.765625 581.925781 209.886719 Z M 564.640625 366.429688 C 564.488281 368.804688 564.511719 371.210938 564.410156 373.585938 C 564.105469 381.539062 563.925781 389.515625 563.441406 397.464844 C 563.160156 401.890625 563.234375 406.363281 562.210938 410.710938 C 561.855469 412.242188 561.34375 413.777344 560.832031 415.261719 C 560.472656 416.308594 559.679688 417.023438 558.632812 417.230469 C 555.921875 417.792969 553.546875 419.144531 551.066406 420.296875 C 547.664062 421.882812 544.164062 423.238281 540.6875 424.59375 C 530.304688 428.65625 519.976562 432.773438 509.671875 437.015625 C 480.347656 449.085938 451.125 461.355469 421.675781 473.117188 C 396.363281 483.242188 370.976562 493.210938 345.332031 502.46875 C 339.25 504.664062 333.0625 506.582031 326.898438 508.601562 C 325.722656 508.988281 324.472656 509.242188 323.242188 509.394531 C 322.453125 509.496094 321.632812 509.140625 321.273438 508.320312 C 321.171875 508.066406 321.097656 507.835938 321.070312 507.605469 C 320.226562 506.277344 319.894531 504.691406 319.765625 503.003906 C 319.128906 502.925781 318.515625 502.542969 318.183594 501.851562 C 317.953125 501.34375 317.796875 500.78125 317.722656 500.242188 C 317.492188 498.425781 317.3125 496.613281 317.160156 494.796875 C 316.496094 486.179688 315.753906 477.566406 315.214844 468.925781 C 314.421875 456.421875 313.425781 443.945312 313.707031 431.417969 C 313.734375 429.832031 313.785156 428.222656 314.015625 426.664062 C 314.371094 424.386719 315.601562 422.90625 317.902344 421.957031 C 329.839844 416.972656 341.957031 412.398438 353.949219 407.539062 C 365.835938 402.734375 377.878906 398.257812 389.871094 393.683594 C 407.28125 387.035156 424.589844 380.15625 442.128906 373.84375 C 474.390625 362.210938 506.785156 350.933594 539.433594 340.375 C 545.59375 338.382812 551.652344 336.132812 557.789062 334.035156 C 558.632812 333.730469 559.527344 333.449219 560.398438 333.347656 C 561.675781 333.191406 562.621094 333.90625 562.929688 335.136719 C 563.160156 336.132812 563.335938 337.15625 563.464844 338.152344 C 564.820312 347.5625 565.253906 356.96875 564.640625 366.429688 Z M 566.226562 291.007812 C 565.945312 298.730469 565.460938 306.449219 564.898438 314.171875 C 564.71875 316.753906 564.027344 319.308594 563.515625 321.867188 C 563.414062 322.378906 563.054688 322.914062 562.671875 323.324219 C 560.960938 325.164062 559.066406 326.800781 556.691406 327.773438 C 552.472656 329.460938 548.304688 331.300781 544.035156 332.808594 C 527.75 338.5625 511.515625 344.414062 495.125 349.835938 C 449.054688 365.074219 403.421875 381.488281 357.9375 398.335938 C 350.90625 400.941406 343.902344 403.652344 336.871094 406.234375 C 332.292969 407.921875 327.589844 409.277344 322.757812 410.121094 C 321.277344 410.378906 319.894531 410.582031 318.386719 410.097656 C 317.566406 409.839844 316.597656 410.042969 315.523438 410.042969 C 314.117188 407.742188 313.914062 405.492188 313.757812 403.21875 C 313.554688 400.152344 313.375 397.082031 313.222656 394.015625 C 312.914062 388.441406 312.582031 382.894531 312.328125 377.320312 C 311.96875 369.011719 311.558594 360.726562 311.355469 352.417969 C 311.203125 345.03125 311.277344 337.640625 311.332031 330.226562 C 311.355469 326.597656 311.457031 322.941406 311.585938 319.308594 C 311.636719 318.058594 311.816406 316.828125 312.046875 315.601562 C 312.300781 314.324219 313.042969 313.558594 314.320312 312.917969 C 319.359375 310.488281 324.675781 308.828125 329.867188 306.882812 C 350.421875 299.242188 371.28125 292.542969 392.015625 285.382812 C 423.257812 274.621094 454.554688 263.984375 486.050781 253.9375 C 505.300781 247.800781 524.628906 241.894531 543.933594 235.859375 C 548.917969 234.300781 553.878906 232.664062 558.863281 231.054688 C 559.503906 230.851562 560.167969 230.59375 560.832031 230.46875 C 562.546875 230.160156 563.492188 230.695312 564.460938 232.257812 C 565.636719 234.148438 566.226562 236.167969 566.328125 238.367188 C 566.535156 242.6875 566.789062 247.007812 566.867188 251.328125 C 567.070312 264.625 566.710938 277.816406 566.226562 291.007812 Z M 397.746094 425.410156 C 400.683594 425.640625 401.398438 425.613281 400.964844 429.449219 C 400.8125 430.777344 400.273438 432.058594 399.738281 433.308594 C 399.152344 434.691406 398.027344 435.714844 396.671875 436.351562 C 394.703125 437.296875 392.785156 436.558594 391.914062 434.5625 C 391.351562 433.257812 391.402344 431.902344 391.734375 430.574219 C 391.964844 429.707031 392.375 428.886719 392.757812 428.070312 C 393.652344 426.101562 395.265625 425.28125 397.746094 425.410156 Z M 500.1875 392.429688 C 500.136719 393.964844 499.703125 395.34375 499.011719 396.671875 C 498.808594 397.058594 498.550781 397.441406 498.246094 397.773438 C 497.480469 398.589844 496.507812 398.769531 495.457031 398.464844 C 494.589844 398.207031 494.257812 397.464844 494.078125 396.671875 C 493.515625 393.886719 494.105469 391.304688 495.6875 388.953125 C 496.175781 388.238281 496.917969 388.007812 497.683594 387.800781 C 498.628906 387.570312 499.292969 387.90625 499.5 388.800781 C 499.78125 390 499.957031 391.226562 500.1875 392.429688 Z M 486.152344 554.621094 C 486.535156 554.699219 486.996094 554.726562 487.40625 554.851562 C 488.097656 555.082031 488.605469 555.542969 488.605469 556.308594 C 488.660156 558.789062 487.917969 561.015625 486.230469 562.855469 C 485.386719 563.773438 484.285156 564.464844 482.90625 564.03125 C 481.398438 563.546875 480.398438 562.574219 480.09375 560.9375 C 479.503906 557.816406 480.9375 555.570312 484.03125 554.878906 C 484.722656 554.726562 485.410156 554.699219 486.152344 554.621094 Z M 581.054688 510.699219 C 581.949219 512.566406 582.101562 514.558594 581.4375 516.578125 C 581.105469 517.578125 580.621094 518.445312 579.699219 519.035156 C 579.136719 519.390625 578.550781 519.339844 578.140625 518.878906 C 576.8125 517.398438 576.632812 515.632812 577.195312 513.765625 C 577.707031 512.027344 578.625 510.699219 580.644531 510.546875 C 580.75 510.546875 580.851562 510.621094 581.054688 510.699219 Z M 386.46875 335.085938 C 386.570312 334.445312 386.621094 333.523438 386.851562 332.65625 C 387.289062 331.019531 388.746094 330.253906 390.277344 330.867188 C 392.171875 331.605469 393.421875 333.117188 394.214844 334.90625 C 394.804688 336.234375 394.191406 337.898438 392.988281 338.867188 C 391.734375 339.890625 390.277344 340.070312 388.820312 339.507812 C 387.464844 338.996094 386.675781 337.871094 386.570312 336.363281 C 386.546875 336.03125 386.519531 335.699219 386.46875 335.085938 Z M 497.222656 294.230469 C 498.605469 297.09375 498.449219 299.878906 497.863281 302.667969 C 497.605469 303.945312 496.609375 304.789062 495.203125 304.941406 C 494.105469 305.070312 493.183594 304.609375 492.699219 303.636719 C 491.496094 301.183594 492.007812 297.425781 493.847656 295.355469 C 494.667969 294.382812 495.765625 294.230469 497.222656 294.230469 Z M 497.222656 294.230469 "/></g></svg>